<svg xmlns="http://www.w3.org/2000/svg" width="24" height="24" fill="currentColor" viewBox="0 0 24 24">
  <path fill-rule="evenodd" d="M14 5h-3v6H6V5H3v14h3v-6h5v6h3V5zm4.696 9.952h-.608v-1.84h.528c.704 0 1.248-.304 1.248-.992 0-.544-.368-.96-.992-.96-.688 0-1.072.496-1.136 1.088h-2.464c.208-1.776 1.52-3.232 3.68-3.232 2.064 0 3.344 1.232 3.344 3.008 0 .848-.464 1.68-1.072 2.016.784.368 1.2 1.168 1.2 2.064 0 1.744-1.328 3.056-3.488 3.056-2.256 0-3.68-1.328-3.808-3.312h2.56c.064.672.464 1.152 1.2 1.152.64 0 1.088-.4 1.088-1.024 0-.672-.528-1.024-1.28-1.024z" clip-rule="evenodd"/>
</svg>
