<svg xmlns="http://www.w3.org/2000/svg" width="40" height="40" fill="none" viewBox="0 0 40 40">
  <path fill="#fff" d="M20 40c11.046 0 20-8.954 20-20S31.046 0 20 0 0 8.954 0 20s8.954 20 20 20z"/>
  <path fill="#81A2B2" d="M20 .95A19.05 19.05 0 11.95 20 19.07 19.07 0 0120 .95zM20 0a20 20 0 100 40 20 20 0 000-40z" opacity=".25"/>
  <path fill="#00A99D" d="M11.664 24.735l2.21 3.46a.95.95 0 001.61 0l4.935-8.035-3.67-5.99-5.115 8.565a1.894 1.894 0 00.03 2z"/>
  <path fill="#EF445A" d="M29.208 22.735l-5.115-8.565-3.675 6 4.94 8.035a.95.95 0 001.61 0l2.21-3.46a1.91 1.91 0 00.03-2.01z"/>
  <path fill="#01445A" d="M22.69 11.815L21.23 9.5a.95.95 0 00-1.615 0l-1.46 2.32-1.405 2.35 3.67 6 3.675-5.975-1.405-2.38z"/>
</svg>
